<mxfile host="65bd71144e">
    <diagram id="l8hXMBHkgcEJcSW0mbfh" name="Page-1">
        <mxGraphModel dx="822" dy="494" grid="1" gridSize="10" guides="1" tooltips="1" connect="1" arrows="1" fold="1" page="1" pageScale="1" pageWidth="1169" pageHeight="827" background="#FCE7CD" math="0" shadow="0">
            <root>
                <mxCell id="0"/>
                <mxCell id="1" parent="0"/>
                <mxCell id="Mhi-WRrgXrBBcF25RInL-11" style="edgeStyle=elbowEdgeStyle;rounded=1;orthogonalLoop=1;jettySize=auto;html=1;exitX=1;exitY=0.5;exitDx=0;exitDy=0;entryX=0;entryY=0.5;entryDx=0;entryDy=0;shape=flexArrow;labelBackgroundColor=#FCE7CD;strokeColor=#23445D;" parent="1" source="Mhi-WRrgXrBBcF25RInL-2" target="Mhi-WRrgXrBBcF25RInL-3" edge="1">
                    <mxGeometry relative="1" as="geometry"/>
                </mxCell>
                <mxCell id="Mhi-WRrgXrBBcF25RInL-2" value="" style="shape=image;html=1;verticalAlign=top;verticalLabelPosition=bottom;labelBackgroundColor=#FCE7CD;imageAspect=0;aspect=fixed;image=https://cdn0.iconfinder.com/data/icons/long-shadow-web-icons/512/ruby-rails-128.png;fillColor=#182E3E;strokeColor=#FFFFFF;fontColor=#FFFFFF;" parent="1" vertex="1">
                    <mxGeometry x="510" y="170" width="120" height="120" as="geometry"/>
                </mxCell>
                <mxCell id="Mhi-WRrgXrBBcF25RInL-12" style="edgeStyle=elbowEdgeStyle;rounded=1;orthogonalLoop=1;jettySize=auto;html=1;exitX=1;exitY=0.5;exitDx=0;exitDy=0;shape=flexArrow;labelBackgroundColor=#FCE7CD;strokeColor=#23445D;" parent="1" source="Mhi-WRrgXrBBcF25RInL-3" target="Mhi-WRrgXrBBcF25RInL-8" edge="1">
                    <mxGeometry relative="1" as="geometry">
                        <Array as="points">
                            <mxPoint x="1060" y="310"/>
                        </Array>
                    </mxGeometry>
                </mxCell>
                <mxCell id="Mhi-WRrgXrBBcF25RInL-3" value="" style="shape=image;html=1;verticalAlign=top;verticalLabelPosition=bottom;labelBackgroundColor=#FCE7CD;imageAspect=0;aspect=fixed;image=https://cdn4.iconfinder.com/data/icons/scripting-and-programming-languages/512/js-128.png;fillColor=#182E3E;strokeColor=#FFFFFF;fontColor=#FFFFFF;" parent="1" vertex="1">
                    <mxGeometry x="820" y="170" width="120" height="120" as="geometry"/>
                </mxCell>
                <mxCell id="Mhi-WRrgXrBBcF25RInL-10" value="" style="edgeStyle=elbowEdgeStyle;rounded=1;orthogonalLoop=1;jettySize=auto;html=1;entryX=0;entryY=0.5;entryDx=0;entryDy=0;shape=flexArrow;endArrow=block;endFill=0;labelBackgroundColor=#FCE7CD;strokeColor=#23445D;" parent="1" source="Mhi-WRrgXrBBcF25RInL-7" target="Mhi-WRrgXrBBcF25RInL-2" edge="1">
                    <mxGeometry relative="1" as="geometry">
                        <mxPoint x="360" y="280" as="targetPoint"/>
                        <Array as="points">
                            <mxPoint x="360" y="300"/>
                        </Array>
                    </mxGeometry>
                </mxCell>
                <mxCell id="Mhi-WRrgXrBBcF25RInL-7" value="" style="outlineConnect=0;dashed=0;verticalLabelPosition=bottom;verticalAlign=top;align=center;html=1;shape=mxgraph.aws3.mysql_db_instance_2;fillColor=#182E3E;strokeColor=#FFFFFF;fontColor=#FFFFFF;" parent="1" vertex="1">
                    <mxGeometry x="300" y="390" width="120" height="120" as="geometry"/>
                </mxCell>
                <mxCell id="Mhi-WRrgXrBBcF25RInL-14" style="edgeStyle=elbowEdgeStyle;rounded=1;orthogonalLoop=1;jettySize=auto;html=1;exitX=0;exitY=0.65;exitDx=0;exitDy=0;exitPerimeter=0;entryX=0.5;entryY=1;entryDx=0;entryDy=0;shape=flexArrow;labelBackgroundColor=#FCE7CD;strokeColor=#23445D;" parent="1" source="Mhi-WRrgXrBBcF25RInL-8" target="Mhi-WRrgXrBBcF25RInL-3" edge="1">
                    <mxGeometry relative="1" as="geometry">
                        <Array as="points">
                            <mxPoint x="880" y="380"/>
                        </Array>
                    </mxGeometry>
                </mxCell>
                <mxCell id="Mhi-WRrgXrBBcF25RInL-8" value="" style="points=[[0.35,0,0],[0.98,0.51,0],[1,0.71,0],[0.67,1,0],[0,0.795,0],[0,0.65,0]];verticalLabelPosition=bottom;sketch=0;html=1;verticalAlign=top;aspect=fixed;align=center;pointerEvents=1;shape=mxgraph.cisco19.user;fillColor=#182E3E;strokeColor=none;fontColor=#FFFFFF;" parent="1" vertex="1">
                    <mxGeometry x="1020" y="390" width="120" height="120" as="geometry"/>
                </mxCell>
                <mxCell id="Mhi-WRrgXrBBcF25RInL-16" value="&lt;font color=&quot;#000000&quot; style=&quot;font-size: 20px&quot;&gt;Events&lt;/font&gt;" style="text;html=1;resizable=0;autosize=1;align=center;verticalAlign=middle;points=[];fillColor=none;strokeColor=none;rounded=0;sketch=0;fontColor=#FFFFFF;strokeWidth=5;" parent="1" vertex="1">
                    <mxGeometry x="855" y="480" width="80" height="20" as="geometry"/>
                </mxCell>
                <mxCell id="Mhi-WRrgXrBBcF25RInL-18" value="&lt;font color=&quot;#000000&quot; style=&quot;font-size: 20px&quot;&gt;DomHandler&lt;/font&gt;" style="text;html=1;resizable=0;autosize=1;align=center;verticalAlign=middle;points=[];fillColor=none;strokeColor=none;rounded=0;sketch=0;fontColor=#FFFFFF;strokeWidth=5;" parent="1" vertex="1">
                    <mxGeometry x="990" y="200" width="130" height="20" as="geometry"/>
                </mxCell>
                <mxCell id="Mhi-WRrgXrBBcF25RInL-19" value="&lt;font color=&quot;#000000&quot; style=&quot;font-size: 20px&quot;&gt;Fetch&lt;/font&gt;" style="text;html=1;resizable=0;autosize=1;align=center;verticalAlign=middle;points=[];fillColor=none;strokeColor=none;rounded=0;sketch=0;fontColor=#FFFFFF;strokeWidth=5;" parent="1" vertex="1">
                    <mxGeometry x="680" y="190" width="70" height="20" as="geometry"/>
                </mxCell>
                <mxCell id="Mhi-WRrgXrBBcF25RInL-24" value="" style="edgeStyle=orthogonalEdgeStyle;shape=flexArrow;rounded=1;sketch=0;orthogonalLoop=1;jettySize=auto;html=1;fontSize=20;fontColor=#000000;strokeColor=#23445D;elbow=vertical;entryX=0;entryY=0.5;entryDx=0;entryDy=0;entryPerimeter=0;" parent="1" source="Mhi-WRrgXrBBcF25RInL-22" target="Mhi-WRrgXrBBcF25RInL-7" edge="1">
                    <mxGeometry relative="1" as="geometry">
                        <mxPoint x="275" y="460" as="targetPoint"/>
                    </mxGeometry>
                </mxCell>
                <mxCell id="Mhi-WRrgXrBBcF25RInL-22" value="AWS Managed Services" style="sketch=0;outlineConnect=0;fontColor=#232F3E;gradientColor=none;strokeColor=#ffffff;fillColor=#232F3E;dashed=0;verticalLabelPosition=middle;verticalAlign=bottom;align=center;html=1;whiteSpace=wrap;fontSize=10;fontStyle=1;spacing=3;shape=mxgraph.aws4.productIcon;prIcon=mxgraph.aws4.managed_services;rounded=0;" parent="1" vertex="1">
                    <mxGeometry x="30" y="380" width="110" height="140" as="geometry"/>
                </mxCell>
                <mxCell id="Mhi-WRrgXrBBcF25RInL-25" value="&lt;font color=&quot;#000000&quot; style=&quot;font-size: 20px&quot;&gt;Instance&lt;/font&gt;" style="text;html=1;resizable=0;autosize=1;align=center;verticalAlign=middle;points=[];fillColor=none;strokeColor=none;rounded=0;sketch=0;fontColor=#FFFFFF;strokeWidth=5;" parent="1" vertex="1">
                    <mxGeometry x="170" y="470" width="90" height="20" as="geometry"/>
                </mxCell>
                <mxCell id="Mhi-WRrgXrBBcF25RInL-26" value="&lt;font color=&quot;#000000&quot; style=&quot;font-size: 20px&quot;&gt;Connect to use data&lt;/font&gt;" style="text;html=1;resizable=0;autosize=1;align=center;verticalAlign=middle;points=[];fillColor=none;strokeColor=none;rounded=0;sketch=0;fontColor=#FFFFFF;strokeWidth=5;" parent="1" vertex="1">
                    <mxGeometry x="260" y="200" width="190" height="20" as="geometry"/>
                </mxCell>
                <mxCell id="Mhi-WRrgXrBBcF25RInL-27" value="&lt;font style=&quot;font-size: 24px&quot; color=&quot;#0066cc&quot;&gt;Database&lt;/font&gt;" style="text;html=1;resizable=0;autosize=1;align=center;verticalAlign=middle;points=[];rounded=0;sketch=0;strokeWidth=5;fontStyle=1;dashed=1;" parent="1" vertex="1">
                    <mxGeometry x="300" y="530" width="120" height="20" as="geometry"/>
                </mxCell>
                <mxCell id="Mhi-WRrgXrBBcF25RInL-28" value="&lt;font style=&quot;font-size: 24px&quot; color=&quot;#0066cc&quot;&gt;aws (cloud)&lt;/font&gt;" style="text;html=1;resizable=0;autosize=1;align=center;verticalAlign=middle;points=[];rounded=0;sketch=0;strokeWidth=5;fontStyle=1;dashed=1;" parent="1" vertex="1">
                    <mxGeometry x="10" y="540" width="150" height="20" as="geometry"/>
                </mxCell>
                <mxCell id="Mhi-WRrgXrBBcF25RInL-29" value="&lt;font style=&quot;font-size: 24px&quot; color=&quot;#0066cc&quot;&gt;Backend&lt;/font&gt;" style="text;html=1;resizable=0;autosize=1;align=center;verticalAlign=middle;points=[];rounded=0;sketch=0;strokeWidth=5;fontStyle=1;dashed=1;" parent="1" vertex="1">
                    <mxGeometry x="510" y="300" width="120" height="20" as="geometry"/>
                </mxCell>
                <mxCell id="Mhi-WRrgXrBBcF25RInL-30" value="&lt;font style=&quot;font-size: 24px&quot; color=&quot;#0066cc&quot;&gt;Frontend&lt;/font&gt;" style="text;html=1;resizable=0;autosize=1;align=center;verticalAlign=middle;points=[];rounded=0;sketch=0;strokeWidth=5;fontStyle=1;dashed=1;" parent="1" vertex="1">
                    <mxGeometry x="820" y="150" width="120" height="20" as="geometry"/>
                </mxCell>
                <mxCell id="Mhi-WRrgXrBBcF25RInL-31" value="&lt;font style=&quot;font-size: 24px&quot; color=&quot;#0066cc&quot;&gt;User&lt;/font&gt;" style="text;html=1;resizable=0;autosize=1;align=center;verticalAlign=middle;points=[];rounded=0;sketch=0;strokeWidth=5;fontStyle=1;dashed=1;" parent="1" vertex="1">
                    <mxGeometry x="1045" y="530" width="70" height="20" as="geometry"/>
                </mxCell>
            </root>
        </mxGraphModel>
    </diagram>
</mxfile>